<svg width="129" height="129" viewBox="0 0 129 129" fill="none" xmlns="http://www.w3.org/2000/svg">
<g clip-path="url(#clip0_1_282)">
<path opacity="0.4" d="M64.3055 128.611C99.8204 128.611 128.611 99.8204 128.611 64.3055C128.611 28.7906 99.8204 0 64.3055 0C28.7906 0 0 28.7906 0 64.3055C0 99.8204 28.7906 128.611 64.3055 128.611Z" fill="white"/>
<path opacity="0.3" d="M64.5 117C93.4949 117 117 93.4949 117 64.5C117 35.5051 93.4949 12 64.5 12C35.5051 12 12 35.5051 12 64.5C12 93.4949 35.5051 117 64.5 117Z" fill="white"/>
<path d="M46 49.7947C46 45.2617 51.0824 42.4895 55.0188 44.8755L79.2452 59.5602C82.9767 61.822 82.9767 67.1369 79.2452 69.3987L55.0188 84.0834C51.0824 86.4694 46 83.6972 46 79.1642V49.7947Z" fill="#141821"/>
</g>
<defs>
<clipPath id="clip0_1_282">
<rect width="129" height="129" fill="white"/>
</clipPath>
</defs>
</svg>
